<svg width="1600" height="900" viewBox="0 0 1600 900" fill="none" xmlns="http://www.w3.org/2000/svg">
  <rect width="1600" height="900" fill="#111827"/>
  <path d="M0 760C180 700 330 640 540 650C760 660 920 800 1160 790C1320 784 1450 730 1600 670V900H0V760Z" fill="#0F766E"/>
  <rect x="110" y="120" width="1380" height="660" rx="34" fill="#0B1220" stroke="#22C55E" stroke-opacity="0.35"/>
  <rect x="180" y="190" width="500" height="440" rx="28" fill="#16A34A" fill-opacity="0.12" stroke="#22C55E" stroke-opacity="0.45"/>
  <path d="M290 408L388 506L568 314" stroke="#86EFAC" stroke-width="44" stroke-linecap="round" stroke-linejoin="round"/>
  <rect x="760" y="206" width="560" height="32" rx="16" fill="#86EFAC"/>
  <rect x="760" y="278" width="470" height="74" rx="18" fill="#F8FAFC" fill-opacity="0.08"/>
  <rect x="760" y="380" width="420" height="22" rx="11" fill="#D1FAE5" fill-opacity="0.78"/>
  <rect x="760" y="420" width="350" height="22" rx="11" fill="#D1FAE5" fill-opacity="0.45"/>
  <rect x="760" y="460" width="390" height="22" rx="11" fill="#D1FAE5" fill-opacity="0.3"/>
  <rect x="760" y="548" width="170" height="90" rx="22" fill="#F59E0B" fill-opacity="0.18"/>
  <rect x="956" y="548" width="170" height="90" rx="22" fill="#38BDF8" fill-opacity="0.18"/>
  <rect x="1152" y="548" width="170" height="90" rx="22" fill="#FB7185" fill-opacity="0.18"/>
  <text x="760" y="680" fill="#94A3B8" font-family="Arial, sans-serif" font-size="28">
    Placeholder compliance image with metrics tiles
  </text>
</svg>
